<?xml version="1.0" encoding="UTF-8"?>
<svg width="48px" height="48px" viewBox="0 0 48 48" version="1.1" xmlns="http://www.w3.org/2000/svg" xmlns:xlink="http://www.w3.org/1999/xlink">
    <!-- Generator: sketchtool 43.1 (39012) - http://www.bohemiancoding.com/sketch -->
    <title>A2FACC7D-0F51-4E14-BFBC-62DC014595DC</title>
    <desc>Created with sketchtool.</desc>
    <defs></defs>
    <g id="Page-1" stroke="none" stroke-width="1" fill="none" fill-rule="evenodd">
        <g id="图标" transform="translate(-279.000000, -78.000000)" fill="#539FFD">
            <g id="项目选中" transform="translate(279.000000, 78.000000)">
                <path d="M22.6232185,8.21458462 C21.9707877,8.21458462 21.4402031,8.77701538 21.4402031,9.46849231 C21.4402031,10.1596923 21.9707877,10.7221231 22.6232185,10.7221231 L31.3825723,10.7221231 C32.0350031,10.7221231 32.5655877,10.1596923 32.5655877,9.46849231 C32.5655877,8.77701538 32.0350031,8.21458462 31.3825723,8.21458462 L22.6232185,8.21458462 Z M31.3825723,11.8367385 L22.6232185,11.8367385 C21.3911877,11.8367385 20.3887262,10.7741846 20.3887262,9.46849231 C20.3887262,8.16252308 21.3911877,7.09996923 22.6232185,7.09996923 L31.3825723,7.09996923 C32.6146031,7.09996923 33.6170646,8.16252308 33.6170646,9.46849231 C33.6170646,10.7741846 32.6146031,11.8367385 31.3825723,11.8367385 L31.3825723,11.8367385 Z" id="Fill-1"></path>
                <path d="M22.6232185,21.3098892 C21.9707877,21.3098892 21.4402031,21.8720431 21.4402031,22.5637969 C21.4402031,23.25472 21.9707877,23.8174277 22.6232185,23.8174277 L31.3825723,23.8174277 C32.0350031,23.8174277 32.5655877,23.25472 32.5655877,22.5637969 C32.5655877,21.8720431 32.0350031,21.3098892 31.3825723,21.3098892 L22.6232185,21.3098892 Z M31.3825723,24.9320431 L22.6232185,24.9320431 C21.3911877,24.9320431 20.3887262,23.8692123 20.3887262,22.5637969 C20.3887262,21.2575508 21.3911877,20.1952738 22.6232185,20.1952738 L31.3825723,20.1952738 C32.6146031,20.1952738 33.6170646,21.2575508 33.6170646,22.5637969 C33.6170646,23.8692123 32.6146031,24.9320431 31.3825723,24.9320431 L31.3825723,24.9320431 Z" id="Fill-3"></path>
                <path d="M22.6232185,14.9016123 C21.9707877,14.9016123 21.4402031,15.4637662 21.4402031,16.15552 C21.4402031,16.8464431 21.9707877,17.4091508 22.6232185,17.4091508 L31.3825723,17.4091508 C32.0350031,17.4091508 32.5655877,16.8464431 32.5655877,16.15552 C32.5655877,15.4637662 32.0350031,14.9016123 31.3825723,14.9016123 L22.6232185,14.9016123 Z M31.3825723,18.5237662 L22.6232185,18.5237662 C21.3911877,18.5237662 20.3887262,17.4609354 20.3887262,16.15552 C20.3887262,14.8492738 21.3911877,13.7869969 22.6232185,13.7869969 L31.3825723,13.7869969 C32.6146031,13.7869969 33.6170646,14.8492738 33.6170646,16.15552 C33.6170646,17.4609354 32.6146031,18.5237662 31.3825723,18.5237662 L31.3825723,18.5237662 Z" id="Fill-5"></path>
                <path d="M16.2858338,8.21458462 C15.6334031,8.21458462 15.1028185,8.77701538 15.1028185,9.46849231 C15.1028185,10.1596923 15.6334031,10.7221231 16.2858338,10.7221231 L16.5486338,10.7221231 C17.2010646,10.7221231 17.7316492,10.1596923 17.7316492,9.46849231 C17.7316492,8.77701538 17.2010646,8.21458462 16.5486338,8.21458462 L16.2858338,8.21458462 Z M16.5486338,11.8367385 L16.2858338,11.8367385 C15.0538031,11.8367385 14.0513415,10.7741846 14.0513415,9.46849231 C14.0513415,8.16252308 15.0538031,7.09996923 16.2858338,7.09996923 L16.5486338,7.09996923 C17.7806646,7.09996923 18.7831262,8.16252308 18.7831262,9.46849231 C18.7831262,10.7741846 17.7806646,11.8367385 16.5486338,11.8367385 L16.5486338,11.8367385 Z" id="Fill-7"></path>
                <path d="M16.2858338,21.3098892 C15.6334031,21.3098892 15.1028185,21.8720431 15.1028185,22.5637969 C15.1028185,23.25472 15.6334031,23.8174277 16.2858338,23.8174277 L16.5486338,23.8174277 C17.2010646,23.8174277 17.7316492,23.25472 17.7316492,22.5637969 C17.7316492,21.8720431 17.2010646,21.3098892 16.5486338,21.3098892 L16.2858338,21.3098892 Z M16.5486338,24.9320431 L16.2858338,24.9320431 C15.0538031,24.9320431 14.0513415,23.8692123 14.0513415,22.5637969 C14.0513415,21.2575508 15.0538031,20.1952738 16.2858338,20.1952738 L16.5486338,20.1952738 C17.7806646,20.1952738 18.7831262,21.2575508 18.7831262,22.5637969 C18.7831262,23.8692123 17.7806646,24.9320431 16.5486338,24.9320431 L16.5486338,24.9320431 Z" id="Fill-9"></path>
                <path d="M16.2858338,14.9016123 C15.6334031,14.9016123 15.1028185,15.4637662 15.1028185,16.15552 C15.1028185,16.8464431 15.6334031,17.4091508 16.2858338,17.4091508 L16.5486338,17.4091508 C17.2010646,17.4091508 17.7316492,16.8464431 17.7316492,16.15552 C17.7316492,15.4637662 17.2010646,14.9016123 16.5486338,14.9016123 L16.2858338,14.9016123 Z M16.5486338,18.5237662 L16.2858338,18.5237662 C15.0538031,18.5237662 14.0513415,17.4609354 14.0513415,16.15552 C14.0513415,14.8492738 15.0538031,13.7869969 16.2858338,13.7869969 L16.5486338,13.7869969 C17.7806646,13.7869969 18.7831262,14.8492738 18.7831262,16.15552 C18.7831262,17.4609354 17.7806646,18.5237662 16.5486338,18.5237662 L16.5486338,18.5237662 Z" id="Fill-11"></path>
                <text font-family="PingFangSC-Semibold, PingFang SC" font-size="10" font-weight="500">
                    <tspan x="14" y="41">项目</tspan>
                </text>
            </g>
        </g>
    </g>
</svg>